<?xml version="1.0" encoding="UTF-8"?>
<svg viewBox="0 0 105 105" version="1.1" xmlns="http://www.w3.org/2000/svg">
    <path d="M52.8871788,5.33258218 C80.3646677,5.33258218 102.64,27.5425946 102.64,54.9425993 C102.64,82.342604 80.3618925,104.554 52.8871788,104.554 C52.1628454,104.554 51.4440625,104.534629 50.7280548,104.504189 C74.0329951,103.218798 92.5354109,83.968368 92.5354109,60.4079337 C92.5354109,36.0200893 72.703663,16.2411131 48.2414545,16.2411131 C23.779246,16.2411131 3.94749812,36.0159384 3.94749812,60.4079337 C3.94801502,62.0327733 4.03788214,63.6563623 4.21669481,65.2713896 C3.4955104,61.8755172 3.13296905,58.413777 3.13296905,54.9425993 C3.13296905,27.5439782 25.4124651,5.33258218 52.8871788,5.33258218 Z M47.8681869,24.6065339 C68.242491,24.6065339 84.7550715,41.0703351 84.7550715,61.3806249 C84.7550715,81.6909147 68.242491,98.1547621 47.8681869,98.1547621 C40.7468783,98.1659847 33.7761549,96.110769 27.8060955,92.2397021 C37.6073844,97.8112863 50.0615813,94.8642915 56.3072155,85.4955776 C62.5528497,76.1268637 60.4570882,63.5357701 51.5111173,56.6811727 C42.5651464,49.8265753 29.8239423,51.0492633 22.3531881,59.4792637 C14.882434,67.909264 15.2333315,80.6678005 23.1562083,88.6768574 C15.3999285,81.7116951 10.9765164,71.7887165 10.9882172,61.3806249 C10.9882172,41.0717187 27.5008209,24.6065339 47.8681869,24.6065339 Z M36.1272276,0.97 C21.3839081,5.51901501 7.86124277,16.0368273 3.04,30.7772678 C3.04,12.058989 18.7939393,0.97 36.1272276,0.97 Z" />
</svg>
