<?xml version="1.0" encoding="UTF-8"?>
<svg viewBox="0 0 100 100" version="1.1" xmlns="http://www.w3.org/2000/svg">
    <path d="M25.8828996,10 C15.9851301,10 5.34386617,14.0918187 0.604089219,21.6709829 C0.092936803,22.41495 0,22.8334314 0,23.902884 L0,87.0935845 C0,88.209535 0.697026022,89 1.85873606,89 C2.69516729,89 3.2063197,88.6745144 3.71747212,88.209535 C9.2472119,82.769276 17.704461,80.3513832 26.3011152,80.3513832 C35.1301115,80.3513832 41.7286245,84.1177163 45.5855019,87.5120659 C46.0037175,87.8840494 46.5148699,88.0700412 46.9795539,88.0700412 C47.7695167,88.0700412 48.4200743,87.465568 48.4200743,86.5821071 L48.4200743,21.4384932 C48.4200743,20.4155386 48.2342007,19.9970571 47.6301115,19.2530901 C42.2862454,13.0223661 34.2007435,10 25.8828996,10 Z M74.1171004,10 C65.7992565,10 57.7137546,13.0223661 52.3234201,19.2530901 C51.7193309,19.9970571 51.5799257,20.4155386 51.5799257,21.4384932 L51.5799257,86.5821071 C51.5799257,87.465568 52.2304833,88.0700412 52.9739777,88.0700412 C53.4851301,88.0700412 53.9962825,87.8840494 54.4144981,87.5120659 C58.2713755,84.1177163 64.8698885,80.3513832 73.6988848,80.3513832 C82.2490706,80.3513832 90.7527881,82.769276 96.2825279,88.209535 C96.7936803,88.6745144 97.3048327,89 98.1412639,89 C99.2565056,89 100,88.209535 100,87.0935845 L100,23.902884 C100,22.8334314 99.9070632,22.41495 99.3959108,21.6709829 C94.6561338,14.0918187 83.9684015,10 74.1171004,10 Z" />
</svg>
