<?xml version="1.0" encoding="UTF-8"?>
<svg viewBox="0 0 100 100" version="1.1" xmlns="http://www.w3.org/2000/svg">
    <path d="M15.8305085,100 L61.8418079,100 C65.7288136,100 67.6723164,97.9601088 67.6723164,94.0163191 L67.6723164,5.98368087 C67.6723164,1.99456029 65.7288136,0 61.8418079,0 L15.8305085,0 C11.9435028,0 10,1.99456029 10,5.98368087 L10,94.0163191 C10,97.9601088 11.9435028,100 15.8305085,100 Z M22.519774,26.9265639 L22.519774,16.7724388 C22.519774,15.9564823 23.0169492,15.3671804 23.8757062,15.3671804 L34.0903955,15.3671804 C34.9491525,15.3671804 35.4915254,15.9564823 35.4915254,16.7724388 L35.4915254,26.9265639 C35.4915254,27.7425204 34.9491525,28.3318223 34.0903955,28.3318223 L23.8757062,28.3318223 C23.0169492,28.3318223 22.519774,27.7425204 22.519774,26.9265639 Z M42.2711864,26.9265639 L42.2711864,16.7724388 C42.2711864,15.9564823 42.8135593,15.3671804 43.6271186,15.3671804 L53.8870056,15.3671804 C54.7457627,15.3671804 55.2429379,15.9564823 55.2429379,16.7724388 L55.2429379,26.9265639 C55.2429379,27.7425204 54.7457627,28.3318223 53.8870056,28.3318223 L43.6271186,28.3318223 C42.8135593,28.3318223 42.2711864,27.7425204 42.2711864,26.9265639 Z M70.1129944,100 L84.1694915,100 C88.0564972,100 90,97.9601088 90,94.0163191 L90,27.9238441 C90,23.9347235 88.0564972,21.9401632 84.1694915,21.9401632 L71.6949153,21.9401632 L71.6949153,36.7180417 L78.7909605,36.7180417 C79.5141243,36.7180417 79.8305085,37.1713509 79.8305085,37.8059837 L79.8305085,45.8295558 C79.8305085,46.4641886 79.5141243,46.9174977 78.7909605,46.9174977 L71.6949153,46.9174977 L71.6949153,53.3091568 L78.7909605,53.3091568 C79.5141243,53.3091568 79.8305085,53.762466 79.8305085,54.3970988 L79.8305085,62.37534 C79.8305085,63.0553037 79.5141243,63.463282 78.7909605,63.463282 L71.6949153,63.463282 L71.6949153,69.900272 L78.7909605,69.900272 C79.5141243,69.900272 79.8305085,70.3535811 79.8305085,70.988214 L79.8305085,79.011786 C79.8305085,79.6464189 79.5141243,80.099728 78.7909605,80.099728 L71.6949153,80.099728 L71.6949153,94.0163191 C71.6949153,96.3735267 71.1525424,98.368087 70.1129944,100 Z M22.519774,46.9174977 L22.519774,36.7633726 C22.519774,35.9474161 23.0169492,35.3581142 23.8757062,35.3581142 L34.0903955,35.3581142 C34.9491525,35.3581142 35.4915254,35.9474161 35.4915254,36.7633726 L35.4915254,46.9174977 C35.4915254,47.7787851 34.9491525,48.3227561 34.0903955,48.3227561 L23.8757062,48.3227561 C23.0169492,48.3227561 22.519774,47.7787851 22.519774,46.9174977 Z M42.2711864,46.9174977 L42.2711864,36.7633726 C42.2711864,35.9474161 42.8135593,35.3581142 43.6271186,35.3581142 L53.8870056,35.3581142 C54.7457627,35.3581142 55.2429379,35.9474161 55.2429379,36.7633726 L55.2429379,46.9174977 C55.2429379,47.7787851 54.7457627,48.3227561 53.8870056,48.3227561 L43.6271186,48.3227561 C42.8135593,48.3227561 42.2711864,47.7787851 42.2711864,46.9174977 Z M22.519774,66.9084316 L22.519774,56.7996374 C22.519774,55.93835 23.0169492,55.3490481 23.8757062,55.3490481 L34.0903955,55.3490481 C34.9491525,55.3490481 35.4915254,55.93835 35.4915254,56.7996374 L35.4915254,66.9084316 C35.4915254,67.7697189 34.9491525,68.3590209 34.0903955,68.3590209 L23.8757062,68.3590209 C23.0169492,68.3590209 22.519774,67.7697189 22.519774,66.9084316 Z M42.2711864,66.9084316 L42.2711864,56.7996374 C42.2711864,55.93835 42.8135593,55.3490481 43.6271186,55.3490481 L53.8870056,55.3490481 C54.7457627,55.3490481 55.2429379,55.93835 55.2429379,56.7996374 L55.2429379,66.9084316 C55.2429379,67.7697189 54.7457627,68.3590209 53.8870056,68.3590209 L43.6271186,68.3590209 C42.8135593,68.3590209 42.2711864,67.7697189 42.2711864,66.9084316 Z M28.7118644,96.781505 L28.7118644,84.7234814 C28.7118644,81.8223028 30.0225989,80.4623753 32.960452,80.4623753 L44.7570621,80.4623753 C47.6949153,80.4623753 49.0056497,81.8223028 49.0056497,84.7234814 L49.0056497,96.781505 L28.7118644,96.781505 Z" />
</svg>
