<?xml version="1.0" encoding="UTF-8"?>
<svg viewBox="0 0 100 100" version="1.1" xmlns="http://www.w3.org/2000/svg">
    <path d="M12.0769505,81 C15.8888493,81 19.3801211,79.3504916 22.1588885,75.9438982 L28.9989312,67.6246385 C30.0320627,66.3337189 31.0651942,65.8316946 32.312077,65.8316946 L67.6522978,65.8316946 C68.9348058,65.8316946 69.9323121,66.3337189 71.0010688,67.6246385 L77.8054863,75.9438982 C80.6198789,79.3504916 84.1111507,81 87.8874243,81 C95.1549697,81 100,76.0514748 100,68.5928282 C100,65.2938115 99.1449947,61.4210526 97.7199857,56.6876807 C95.5468472,49.3366108 91.7705736,39.4395604 87.9943,31.4071718 C85.1442822,25.4187392 83.7905237,23.0879121 77.0217314,21.5459803 C69.9679373,19.8964719 60.5628785,19 49.9821874,19 C39.4014963,19 30.0320627,19.8964719 22.9782686,21.5459803 C16.2094763,23.0879121 14.8557178,25.4187392 12.0057,31.4071718 C8.22942643,39.4395604 4.45315283,49.3366108 2.24438903,56.6876807 C0.855005344,61.4210526 0,65.2938115 0,68.5928282 C0,76.0514748 4.84503028,81 12.0769505,81 Z M21.6245102,42.7027183 C21.6245102,41.913823 22.1945137,41.340081 23.0138938,41.340081 L31.8845743,41.340081 L31.8845743,32.0884905 C31.8845743,31.2637363 32.4189526,30.6899942 33.2027075,30.6899942 C33.9864624,30.6899942 34.5208408,31.2637363 34.5208408,32.0884905 L34.5208408,41.340081 L43.3202708,41.340081 C44.1752761,41.340081 44.7452797,41.913823 44.7452797,42.7027183 C44.7452797,43.4916136 44.1752761,44.0653557 43.3202708,44.0653557 L34.5208408,44.0653557 L34.5208408,53.3169462 C34.5208408,54.1417004 33.9864624,54.7154425 33.2027075,54.7154425 C32.4189526,54.7154425 31.8845743,54.1417004 31.8845743,53.3169462 L31.8845743,44.0653557 L23.0138938,44.0653557 C22.1945137,44.0653557 21.6245102,43.4916136 21.6245102,42.7027183 Z M72.0342002,41.5552342 C69.5404346,41.5552342 67.5810474,39.6188548 67.5810474,37.1087334 C67.5810474,34.562753 69.5404346,32.5905147 72.0342002,32.5905147 C74.5279658,32.5905147 76.5229783,34.562753 76.5229783,37.1087334 C76.5229783,39.6188548 74.5279658,41.5552342 72.0342002,41.5552342 Z M60.634129,52.5280509 C58.1759886,52.5280509 56.1809761,50.5916715 56.1809761,48.08155 C56.1809761,45.5355697 58.1759886,43.5991903 60.634129,43.5991903 C63.1278945,43.5991903 65.122907,45.5355697 65.122907,48.08155 C65.122907,50.5916715 63.1278945,52.5280509 60.634129,52.5280509 Z" />
</svg>
