<?xml version="1.0" encoding="UTF-8"?>
<svg viewBox="0 0 100 100" version="1.1" xmlns="http://www.w3.org/2000/svg">
    <path d="M8.63829787,77.9059081 L91.3617021,77.9059081 C96.8510638,77.9059081 100,74.7483589 100,69.2439825 L100,19.6619256 C100,14.1575492 96.8510638,11 91.3617021,11 L8.63829787,11 C3.14893617,11 0,14.1575492 0,19.6619256 L0,69.2439825 C0,74.7483589 3.14893617,77.9059081 8.63829787,77.9059081 Z M71.106383,42.4901532 C68.9787234,40.5700219 66.893617,39.5886214 64.212766,39.5886214 C61.6595745,39.5886214 59.7021277,40.5273523 57.5744681,42.4474836 L37.6595745,60.2407002 L29.1489362,52.261488 C27.3617021,50.5973742 25.5744681,49.6586433 23.3191489,49.6586433 C21.1914894,49.6586433 19.5319149,50.512035 17.8297872,52.1761488 L3.14893617,66.0010941 L3.14893617,19.7899344 C3.14893617,16.1630197 5.19148936,14.1575492 8.80851064,14.1575492 L91.2340426,14.1575492 C94.8085106,14.1575492 96.8510638,16.1630197 96.8510638,19.7899344 L96.8510638,66.1291028 L71.106383,42.4901532 Z M30.893617,40.9967177 C36.3829787,40.9967177 40.893617,36.4737418 40.893617,30.9266958 C40.893617,25.4223195 36.3829787,20.856674 30.893617,20.856674 C25.3617021,20.856674 20.8510638,25.4223195 20.8510638,30.9266958 C20.8510638,36.4737418 25.3617021,40.9967177 30.893617,40.9967177 Z M29.6595745,89 L70.3404255,89 C71.2340426,89 71.9574468,88.3172867 71.9574468,87.4212254 C71.9574468,86.4824945 71.2340426,85.7997812 70.3404255,85.7997812 L29.6595745,85.7997812 C28.7659574,85.7997812 28.0425532,86.4824945 28.0425532,87.4212254 C28.0425532,88.3172867 28.7659574,89 29.6595745,89 Z" />
</svg>
