<?xml version="1.0" encoding="UTF-8"?>
<svg viewBox="0 0 100 100" version="1.1" xmlns="http://www.w3.org/2000/svg">
    <path d="M8.63829787,77.9059081 L91.3617021,77.9059081 C96.9787234,77.9059081 100,74.8763676 100,69.2439825 L100,19.6619256 C100,14.0295405 96.9787234,11 91.3617021,11 L8.63829787,11 C3.06382979,11 0,14.0295405 0,19.6619256 L0,69.2439825 C0,74.8763676 3.06382979,77.9059081 8.63829787,77.9059081 Z M29.6595745,89 L70.3404255,89 C71.2340426,89 71.9574468,88.3172867 71.9574468,87.3785558 C71.9574468,86.4824945 71.2340426,85.7997812 70.3404255,85.7997812 L29.6595745,85.7997812 C28.7659574,85.7997812 28.0425532,86.4824945 28.0425532,87.3785558 C28.0425532,88.3172867 28.7659574,89 29.6595745,89 Z" />
</svg>
